<svg width="61" height="61" viewBox="0 0 61 61" fill="none" xmlns="http://www.w3.org/2000/svg">
<g clip-path="url(#clip0)">
<path d="M56.5905 9H53.5139C53.0285 9 52.6352 9.39329 52.6352 9.87867C52.6352 10.364 53.0285 10.7573 53.5139 10.7573H56.5905C58.044 10.7573 59.2266 11.9399 59.2266 13.3934V17.4352H2.75734V13.3934C2.75734 11.9399 3.9398 10.7573 5.39335 10.7573H49.656C50.1413 10.7573 50.5346 10.364 50.5346 9.87867C50.5346 9.39329 50.1413 9 49.656 9H5.39335C2.9708 9 1 10.9708 1 13.3934V23.0799C1 23.5653 1.39341 23.9586 1.87867 23.9586C2.36393 23.9586 2.75734 23.5653 2.75734 23.0799V19.1926H59.2266V41.8466C59.2266 42.332 59.6198 42.7252 60.1052 42.7252C60.5906 42.7252 60.9839 42.332 60.9839 41.8466V13.3934C60.9839 10.9708 59.0131 9 56.5905 9Z" fill="white"/>
<path d="M59.8488 44.2943C59.3635 44.2943 58.9702 44.6876 58.9702 45.173V47.4582C58.9702 48.9116 57.7876 50.0942 56.3342 50.0942H5.13697C3.68342 50.0942 2.50096 48.9116 2.50096 47.4582V26.4717C2.50096 25.9863 2.10755 25.593 1.62229 25.593C1.13703 25.593 0.743622 25.9863 0.743622 26.4717V47.4582C0.743622 49.8808 2.71442 51.8516 5.13697 51.8516H56.3342C58.7567 51.8516 60.7275 49.8808 60.7275 47.4582V45.173C60.7275 44.6877 60.3342 44.2943 59.8488 44.2943Z" fill="white"/>
<path d="M13.453 27.7124C13.1098 27.3693 12.5534 27.3693 12.2104 27.7124L6.93017 32.9926C6.76533 33.1574 6.67278 33.3808 6.67278 33.614C6.67278 33.8471 6.76533 34.0704 6.93017 34.2354L12.1406 39.4458C12.3121 39.6173 12.537 39.703 12.7618 39.703C12.9867 39.703 13.2116 39.6173 13.3831 39.4458C13.7263 39.1025 13.7263 38.5462 13.3831 38.2031L8.794 33.6141L13.453 28.9551C13.7962 28.6119 13.7962 28.0556 13.453 27.7124Z" fill="white"/>
<path d="M25.2696 39.4456C25.4411 39.6171 25.666 39.7029 25.8908 39.7029C26.1157 39.7029 26.3406 39.6171 26.5121 39.4456L31.7226 34.2352C31.8873 34.0704 31.9799 33.847 31.9799 33.6138C31.9799 33.3807 31.8873 33.1574 31.7226 32.9924L26.4423 27.7122C26.0991 27.3692 25.5428 27.3692 25.1997 27.7122C24.8566 28.0555 24.8566 28.6118 25.1997 28.9549L29.8588 33.6138L25.2697 38.2028C24.9264 38.5462 24.9264 39.1025 25.2696 39.4456Z" fill="white"/>
<path d="M16.207 42.6822C16.5614 42.6822 16.8954 42.4661 17.0286 42.115L23.2724 25.6665C23.4446 25.2128 23.2164 24.7054 22.7627 24.5332C22.3091 24.3608 21.8016 24.5892 21.6295 25.0428L15.3858 41.4915C15.2135 41.9451 15.4418 42.4525 15.8954 42.6248C15.998 42.6638 16.1033 42.6822 16.207 42.6822Z" fill="white"/>
<path d="M4.61046 13.7608C4.61046 15.2142 5.79292 16.3968 7.24647 16.3968C8.70003 16.3968 9.88248 15.2142 9.88248 13.7608C9.88248 12.3073 8.70003 11.1248 7.24647 11.1248C5.79292 11.1248 4.61046 12.3073 4.61046 13.7608ZM8.12514 13.7608C8.12514 14.2453 7.73103 14.6394 7.24647 14.6394C6.76191 14.6394 6.3678 14.2453 6.3678 13.7608C6.3678 13.2762 6.76191 12.8821 7.24647 12.8821C7.73103 12.8821 8.12514 13.2762 8.12514 13.7608Z" fill="white"/>
<path d="M11.4243 13.7608C11.4243 15.2142 12.6067 16.3968 14.0603 16.3968C15.5138 16.3968 16.6963 15.2142 16.6963 13.7608C16.6963 12.3073 15.5138 11.1248 14.0603 11.1248C12.6067 11.1248 11.4243 12.3073 11.4243 13.7608ZM14.939 13.7608C14.939 14.2453 14.5448 14.6394 14.0603 14.6394C13.5757 14.6394 13.1816 14.2453 13.1816 13.7608C13.1816 13.2762 13.5757 12.8821 14.0603 12.8821C14.5448 12.8821 14.939 13.2762 14.939 13.7608Z" fill="white"/>
<path d="M18.2379 13.7608C18.2379 15.2142 19.4204 16.3968 20.8739 16.3968C22.3275 16.3968 23.51 15.2142 23.51 13.7608C23.51 12.3073 22.3275 11.1248 20.8739 11.1248C19.4204 11.1248 18.2379 12.3073 18.2379 13.7608ZM21.7526 13.7608C21.7526 14.2453 21.3585 14.6394 20.8739 14.6394C20.3894 14.6394 19.9953 14.2453 19.9953 13.7608C19.9953 13.2762 20.3894 12.8821 20.8739 12.8821C21.3585 12.8821 21.7526 13.2762 21.7526 13.7608Z" fill="white"/>
<path d="M40.0495 28.6392H45.5558C47.0092 28.6392 48.1918 27.4566 48.1918 26.0032C48.1918 24.5498 47.0092 23.3672 45.5558 23.3672H40.0495C38.596 23.3672 37.4135 24.5498 37.4135 26.0032C37.4135 27.4566 38.596 28.6392 40.0495 28.6392ZM40.0495 25.1245H45.5558C46.0404 25.1245 46.4345 25.5186 46.4345 26.0032C46.4345 26.4878 46.0404 26.8819 45.5558 26.8819H40.0495C39.5649 26.8819 39.1708 26.4878 39.1708 26.0032C39.1708 25.5186 39.5649 25.1245 40.0495 25.1245Z" fill="white"/>
<path d="M40.0495 35.6685H54.5768C56.0303 35.6685 57.2128 34.4859 57.2128 33.0325C57.2128 31.5791 56.0303 30.3965 54.5768 30.3965H40.0495C38.596 30.3965 37.4135 31.5791 37.4135 33.0325C37.4135 34.4859 38.596 35.6685 40.0495 35.6685ZM40.0495 32.1538H54.5768C55.0614 32.1538 55.4555 32.5479 55.4555 33.0325C55.4555 33.517 55.0614 33.9112 54.5768 33.9112H40.0495C39.5649 33.9112 39.1708 33.517 39.1708 33.0325C39.1708 32.5479 39.5649 32.1538 40.0495 32.1538Z" fill="white"/>
<path d="M40.0495 42.6979H50.2614C51.7148 42.6979 52.8974 41.5154 52.8974 40.0619C52.8974 38.6085 51.7148 37.4259 50.2614 37.4259H40.0495C38.596 37.4259 37.4135 38.6085 37.4135 40.0619C37.4135 41.5154 38.596 42.6979 40.0495 42.6979ZM40.0495 39.1832H50.2614C50.7459 39.1832 51.1401 39.5774 51.1401 40.0619C51.1401 40.5465 50.7459 40.9406 50.2614 40.9406H40.0495C39.5649 40.9406 39.1708 40.5465 39.1708 40.0619C39.1708 39.5774 39.5649 39.1832 40.0495 39.1832Z" fill="white"/>
</g>
<defs>
<clipPath id="clip0">
<rect width="59.9839" height="59.9839" fill="white" transform="translate(0.743622 0.244263)"/>
</clipPath>
</defs>
</svg>
