<svg width="148" height="33" viewBox="0 0 148 33" fill="none" xmlns="http://www.w3.org/2000/svg">
<g clip-path="url(#clip0)">
<path d="M60.1868 7.64864C60.1868 7.28784 60.1979 6.8207 59.9971 6.58143C59.2757 5.70411 55.4752 6.52826 55.0364 7.62965C53.337 11.8757 51.6487 16.1294 49.7484 20.8995C48.1643 16.8016 46.7586 13.1708 45.3641 9.54C44.1035 6.26241 44.1072 6.30418 40.6823 6.33077C39.6522 6.33836 39.3026 6.59662 39.3138 7.69422C39.3621 13.3873 39.3919 19.0841 39.2989 24.7772C39.2766 26.2242 40.0241 26.0571 40.9017 26.0571C41.7756 26.0571 42.5416 26.228 42.4933 24.7772C42.378 21.1122 42.4449 17.4396 42.4672 13.7709C42.471 13.2733 42.233 12.6657 42.9469 12.1074C43.1924 12.7074 43.4006 13.2012 43.6014 13.6987C45.0815 17.4396 46.5838 21.173 48.0155 24.9329C48.3688 25.8596 48.8894 26.0723 49.8042 26.0913C50.7562 26.1103 51.0648 25.6811 51.3623 24.8797C52.5895 21.5794 53.8762 18.3018 55.1517 15.0204C55.5235 14.0671 55.9289 13.129 56.364 12.0732C57.0705 12.7796 56.8176 13.4366 56.8214 14.0177C56.8474 17.5612 56.9218 21.1084 56.7916 24.6443C56.7358 26.1444 57.4647 26.1065 58.4539 26.0533C59.3278 26.0039 60.2574 26.3799 60.2277 24.7392C60.131 19.0386 60.1979 13.3417 60.1868 7.64864Z" fill="#747474"/>
<path d="M15.5073 1.51191C15.5222 0.342151 15.1541 -0.0148523 14.0236 0.000339301C9.81402 0.0573079 5.60075 0.05351 1.3912 0.00413721C0.375995 -0.00725651 -0.0144667 0.239607 0.000408051 1.35999C0.059907 5.72378 0.048751 10.0914 0.00412674 14.4552C-0.00702932 15.435 0.256997 15.7882 1.25361 15.7541C3.4216 15.6857 5.58959 15.7313 7.75759 15.7313C9.80287 15.7313 11.8481 15.6743 13.8897 15.7541C15.0351 15.7996 15.5371 15.549 15.5111 14.2235C15.433 9.99263 15.4478 5.75037 15.5073 1.51191Z" fill="#F34F1C"/>
<path d="M14.0856 17.0004C9.81281 17.0498 5.54004 17.046 1.26726 17.0004C0.307844 16.989 -0.0305564 17.2586 0.00291174 18.2765C0.0735668 20.4261 0.0252239 22.5757 0.0252239 24.7253C0.0252239 26.9395 0.0810042 29.1537 0.00291174 31.3641C-0.0379938 32.4655 0.34875 32.7655 1.37511 32.7541C5.64788 32.7047 9.92065 32.7047 14.1934 32.7389C15.138 32.7465 15.4987 32.4579 15.4875 31.4476C15.4429 27.0838 15.4355 22.72 15.4912 18.3562C15.5024 17.2283 15.0971 16.989 14.0856 17.0004Z" fill="#01A6F0"/>
<path d="M31.0546 17.2499C28.9535 17.3068 26.8488 17.2689 24.744 17.2689C22.5165 17.2689 20.289 17.303 18.0652 17.2537C17.1913 17.2347 16.8715 17.5043 16.879 18.4272C16.9161 22.848 16.9199 27.2725 16.8752 31.6933C16.8641 32.7149 17.2285 32.977 18.1693 32.9656C22.4979 32.9276 26.8302 32.9314 31.1587 32.9618C32.0252 32.9694 32.345 32.7035 32.3375 31.7769C32.2966 27.3561 32.2929 22.9315 32.3413 18.5108C32.3524 17.4815 31.9917 17.2233 31.0546 17.2499Z" fill="#FFBA01"/>
<path d="M18.0616 15.7649C20.1627 15.7193 22.2675 15.7497 24.3685 15.7497C26.596 15.7497 28.8235 15.7155 31.0473 15.7649C31.9918 15.7876 32.3488 15.499 32.3377 14.485C32.2931 10.0642 32.3005 5.64345 32.334 1.22268C32.3414 0.307389 31.9918 -0.000241411 31.1403 0.00355649C26.8117 0.0263439 22.4832 0.0301418 18.1546 -0.000241411C17.2026 -0.00783722 16.8494 0.330176 16.8568 1.32143C16.894 5.74219 16.8903 10.163 16.8605 14.5837C16.8531 15.5028 17.1952 15.7839 18.0616 15.7649Z" fill="#7FBC00"/>
<path d="M148.039 23.9369C148.054 23.0216 147.377 23.5571 146.961 23.6064C145.566 23.7774 144.837 23.1393 144.815 21.7151C144.789 20.1352 144.915 18.5438 144.767 16.9791C144.603 15.2549 144.986 14.3244 146.883 14.7118C147.879 14.9168 148.139 14.4345 148.113 13.4584C148.091 12.5318 148.069 11.7608 146.871 12.0076C144.96 12.4026 144.521 11.4569 144.782 9.75549C144.867 9.20479 144.796 8.62751 144.796 7.80716C143.9 8.08441 143.205 8.36545 142.487 8.50218C141.755 8.6389 141.319 8.96173 141.476 9.74789C141.907 11.9317 140.784 12.2849 139.032 12.0152C138.486 11.9317 137.921 12.0114 137.363 11.9963C137.073 11.9887 136.812 12.0038 136.652 11.5937C135.965 9.81246 137.214 7.77678 139.01 7.81856C139.587 7.82995 140.457 8.38065 140.297 7.05518C140.196 6.20445 140.684 5.1942 139.137 5.03849C135.697 4.68908 133.417 6.73615 133.298 10.4619C133.276 11.0886 133.759 12.152 132.409 12C131.446 11.8899 130.993 12.1064 131 13.2761C131.008 14.4079 131.238 14.9206 132.417 14.7345C133.369 14.5826 133.321 15.2776 133.317 15.9347C133.306 18.9692 133.358 22.0037 133.295 25.0383C133.261 26.6676 134.395 26.0105 135.098 26.0713C135.808 26.1321 136.734 26.4663 136.675 25.0117C136.574 22.676 136.649 20.3364 136.649 17.9969C136.649 14.6852 136.649 14.7459 139.958 14.7004C141.156 14.6852 141.55 14.989 141.49 16.2461C141.39 18.3274 141.386 20.42 141.502 22.5013C141.68 25.6687 144.525 27.3778 147.359 26.2042C148.604 25.6839 148.028 24.7002 148.039 23.9369Z" fill="#747474"/>
<path d="M97.378 12.0002C92.8189 11.9736 90.0262 14.8448 90.0001 19.5846C89.9778 23.937 92.6664 26.7626 96.8685 26.8044C101.324 26.8462 104.146 24.0168 104.239 19.4061C104.332 14.9018 101.666 12.0268 97.378 12.0002ZM97.2293 24.0509C94.9348 24.0813 93.5292 22.4482 93.4511 19.653C93.3693 16.7172 94.6559 14.9398 96.9615 14.8068C99.2745 14.6739 100.684 16.2614 100.777 19.1061C100.881 22.2545 99.6129 24.0206 97.2293 24.0509Z" fill="#747474"/>
<path d="M123.87 11.5873C119.325 11.5835 116.536 14.4889 116.544 19.2249C116.551 23.5773 119.244 26.3649 123.464 26.3915C127.904 26.4181 130.719 23.5507 130.783 18.94C130.842 14.4281 128.172 11.5873 123.87 11.5873ZM123.65 23.638C121.259 23.5849 119.894 21.7581 119.991 18.7387C120.076 15.9587 121.512 14.3218 123.803 14.3863C126.119 14.4509 127.402 16.2055 127.32 19.1907C127.242 22.1227 125.948 23.6874 123.65 23.638Z" fill="#747474"/>
<path d="M113.319 19.0859C112.445 18.5124 111.441 18.1516 110.5 17.6807C109.786 17.3237 109.221 16.8299 109.414 15.9222C109.626 14.9234 110.426 14.7525 111.27 14.7259C112.333 14.6917 113.267 15.2424 114.464 15.5804C114.137 14.4031 115.301 13.0016 113.613 12.413C111.798 11.7825 109.953 11.8509 108.213 12.7776C106.856 13.503 106.082 14.6271 106.023 16.2451C105.963 17.9237 106.584 19.1922 108.05 19.9784C108.812 20.3886 109.608 20.7304 110.385 21.114C111.177 21.5052 112.043 21.9153 111.776 23.0357C111.482 24.2662 110.441 24.1561 109.518 24.1447C108.295 24.1257 107.25 23.4193 106.093 23.0053C105.926 25.9867 105.9 26.0778 106.741 26.3399C108.86 27.0083 111.002 27.1792 113.04 26.055C115.803 24.5321 115.963 20.8101 113.319 19.0859Z" fill="#747474"/>
<path d="M78.9954 12.4478C76.463 11.3958 72.7369 12.2731 70.8998 14.286C68.9736 16.4015 68.4269 20.2373 69.6541 23.006C70.8217 25.6342 73.2538 26.99 76.515 26.8305C79.5532 26.6824 79.9994 26.1697 79.7429 23.0212C76.6229 24.4188 74.6297 24.2707 73.3356 22.6224C72.1456 21.1109 72.1047 18.2055 73.2463 16.5458C74.507 14.7114 76.1804 14.5063 79.8804 15.7786C79.4863 14.643 80.6911 13.1543 78.9954 12.4478Z" fill="#747474"/>
<path d="M89.7193 12.2805C89.0091 11.7108 88.0459 12.1248 87.2427 12.5008C86.9675 12.6299 86.7072 12.8236 86.4804 13.0363C85.956 13.5186 85.7552 13.5604 85.2941 12.8008C84.7028 11.8248 83.5091 12.3565 82.6092 12.4135C81.6684 12.4704 82.0998 13.4123 82.0923 13.9478C82.0514 17.6773 82.1593 21.4145 82.0328 25.1402C81.9771 26.7733 82.9179 26.4353 83.7918 26.4505C84.6248 26.4619 85.5135 26.7164 85.3982 25.2124C85.2532 23.3286 85.3387 21.4221 85.3722 19.5231C85.4354 15.9911 86.737 14.8555 90.1396 15.4328C89.9648 14.3504 90.7457 13.1009 89.7193 12.2805Z" fill="#747474"/>
<path d="M64.596 12.0904C63.9118 12.0486 62.971 11.646 63.0007 13.1234C63.0825 17.1036 63.0825 21.0914 63.0007 25.0716C62.971 26.5262 63.8746 26.1806 64.5812 26.1236C65.284 26.0705 66.4331 26.7237 66.3698 25.083C66.2955 23.1271 66.3513 21.1636 66.3513 19.2039C66.355 19.2039 66.355 19.2039 66.3587 19.2039C66.3587 17.1796 66.2955 15.1553 66.3773 13.1348C66.4442 11.4865 65.2952 12.1322 64.596 12.0904Z" fill="#747474"/>
<path d="M64.9987 5.95479C63.7864 5.92061 62.946 6.63082 62.9386 7.89932C62.9349 9.06148 63.6674 9.72611 64.9913 9.80207C66.0586 9.7451 66.9064 9.19061 66.8953 7.87653C66.8841 6.69538 66.1218 5.98518 64.9987 5.95479Z" fill="#747474"/>
</g>
<defs>
<clipPath id="clip0">
<rect width="148" height="33" fill="white"/>
</clipPath>
</defs>
</svg>
