<svg width="148" height="33" viewBox="0 0 148 33" fill="none" xmlns="http://www.w3.org/2000/svg">
<g clip-path="url(#clip0)">
<path d="M60.1868 7.64864C60.1868 7.28784 60.1979 6.8207 59.9971 6.58143C59.2757 5.70411 55.4752 6.52826 55.0364 7.62965C53.337 11.8757 51.6487 16.1294 49.7484 20.8995C48.1643 16.8016 46.7586 13.1708 45.3641 9.54C44.1035 6.26241 44.1072 6.30418 40.6823 6.33077C39.6522 6.33836 39.3026 6.59662 39.3138 7.69422C39.3621 13.3873 39.3919 19.0841 39.2989 24.7772C39.2766 26.2242 40.0241 26.0571 40.9017 26.0571C41.7756 26.0571 42.5416 26.228 42.4933 24.7772C42.378 21.1122 42.4449 17.4396 42.4672 13.7709C42.471 13.2733 42.233 12.6657 42.9469 12.1074C43.1924 12.7074 43.4006 13.2012 43.6014 13.6987C45.0815 17.4396 46.5838 21.173 48.0155 24.9329C48.3688 25.8596 48.8894 26.0723 49.8042 26.0913C50.7562 26.1103 51.0648 25.6811 51.3623 24.8797C52.5895 21.5794 53.8762 18.3018 55.1517 15.0204C55.5235 14.0671 55.9289 13.129 56.364 12.0732C57.0705 12.7796 56.8176 13.4366 56.8214 14.0177C56.8474 17.5612 56.9218 21.1084 56.7916 24.6443C56.7358 26.1444 57.4647 26.1065 58.4539 26.0533C59.3278 26.0039 60.2574 26.3799 60.2277 24.7392C60.131 19.0386 60.1979 13.3417 60.1868 7.64864Z" fill="#BEBEBE"/>
<path d="M15.5073 1.51191C15.5222 0.342151 15.1541 -0.0148523 14.0236 0.000339301C9.81402 0.0573079 5.60075 0.05351 1.3912 0.00413721C0.375995 -0.00725651 -0.0144667 0.239607 0.000408051 1.35999C0.059907 5.72378 0.048751 10.0914 0.00412674 14.4552C-0.00702932 15.435 0.256997 15.7882 1.25361 15.7541C3.4216 15.6857 5.58959 15.7313 7.75759 15.7313C9.80287 15.7313 11.8481 15.6743 13.8897 15.7541C15.0351 15.7996 15.5371 15.549 15.5111 14.2235C15.433 9.99263 15.4478 5.75037 15.5073 1.51191Z" fill="#BEBEBE"/>
<path d="M14.0974 17.2459C9.82465 17.2952 5.55188 17.2914 1.27911 17.2459C0.319685 17.2345 -0.0187156 17.5041 0.0147526 18.522C0.0854076 20.6716 0.0370647 22.8212 0.0370647 24.9708C0.0370647 27.185 0.092845 29.3992 0.0147526 31.6096C-0.026153 32.7109 0.36059 33.011 1.38695 32.9996C5.65972 32.9502 9.93249 32.9502 14.2053 32.9844C15.1498 32.992 15.5105 32.7034 15.4994 31.6931C15.4547 27.3293 15.4473 22.9655 15.5031 18.6017C15.5142 17.4737 15.1089 17.2345 14.0974 17.2459Z" fill="#BEBEBE"/>
<path d="M31.0546 17.2499C28.9535 17.3068 26.8488 17.2689 24.744 17.2689C22.5165 17.2689 20.289 17.303 18.0652 17.2537C17.1913 17.2347 16.8715 17.5043 16.879 18.4272C16.9161 22.848 16.9199 27.2725 16.8752 31.6933C16.8641 32.7149 17.2285 32.977 18.1693 32.9656C22.4979 32.9276 26.8302 32.9314 31.1587 32.9618C32.0252 32.9694 32.345 32.7035 32.3375 31.7769C32.2966 27.3561 32.2929 22.9315 32.3413 18.5108C32.3524 17.4815 31.9917 17.2233 31.0546 17.2499Z" fill="#BEBEBE"/>
<path d="M18.0616 15.7649C20.1627 15.7193 22.2675 15.7497 24.3685 15.7497C26.596 15.7497 28.8235 15.7155 31.0473 15.7649C31.9918 15.7876 32.3488 15.499 32.3377 14.485C32.2931 10.0642 32.3005 5.64345 32.334 1.22268C32.3414 0.307389 31.9918 -0.000241411 31.1403 0.00355649C26.8117 0.0263439 22.4832 0.0301418 18.1546 -0.000241411C17.2026 -0.00783722 16.8494 0.330176 16.8568 1.32143C16.894 5.74219 16.8903 10.163 16.8605 14.5837C16.8531 15.5028 17.1952 15.7839 18.0616 15.7649Z" fill="#BEBEBE"/>
<path d="M147.877 23.8847C147.892 22.9694 147.215 23.5049 146.799 23.5543C145.404 23.7252 144.675 23.0872 144.653 21.663C144.627 20.083 144.753 18.4917 144.605 16.927C144.441 15.2027 144.824 14.2722 146.721 14.6596C147.717 14.8647 147.978 14.3824 147.951 13.4063C147.929 12.4796 147.907 11.7087 146.709 11.9555C144.798 12.3505 144.359 11.4048 144.62 9.70336C144.705 9.15267 144.634 8.57539 144.634 7.75504C143.738 8.03229 143.043 8.31333 142.325 8.45006C141.593 8.58678 141.157 8.9096 141.314 9.69577C141.745 11.8796 140.622 12.2328 138.87 11.9631C138.324 11.8796 137.759 11.9593 137.201 11.9441C136.911 11.9365 136.65 11.9517 136.491 11.5415C135.803 9.76033 137.052 7.72466 138.848 7.76643C139.425 7.77783 140.295 8.32852 140.135 7.00305C140.034 6.15232 140.522 5.14208 138.975 4.98637C135.535 4.63696 133.255 6.68403 133.136 10.4098C133.114 11.0364 133.597 12.0998 132.248 11.9479C131.284 11.8378 130.831 12.0543 130.838 13.224C130.846 14.3558 131.076 14.8685 132.255 14.6824C133.207 14.5305 133.159 15.2255 133.155 15.8826C133.144 18.9171 133.196 21.9516 133.133 24.9861C133.099 26.6154 134.233 25.9584 134.936 26.0192C135.646 26.0799 136.572 26.4141 136.513 24.9595C136.412 22.6238 136.487 20.2843 136.487 17.9448C136.487 14.633 136.487 14.6938 139.796 14.6482C140.994 14.633 141.388 14.9369 141.329 16.194C141.228 18.2752 141.224 20.3679 141.34 22.4491C141.518 25.6166 144.363 27.3256 147.197 26.1521C148.442 25.6318 147.866 24.6481 147.877 23.8847Z" fill="#BEBEBE"/>
<path d="M97.5224 11.5836C92.9633 11.557 90.1705 14.4282 90.1445 19.168C90.1222 23.5204 92.8108 26.346 97.0129 26.3878C101.468 26.4296 104.29 23.6001 104.383 18.9895C104.476 14.4852 101.81 11.6101 97.5224 11.5836ZM97.3736 23.6343C95.0792 23.6647 93.6735 22.0316 93.5954 19.2363C93.5136 16.3006 94.8003 14.5231 97.1059 14.3902C99.4189 14.2573 100.828 15.8448 100.921 18.6894C101.025 21.8379 99.7573 23.6039 97.3736 23.6343Z" fill="#BEBEBE"/>
<path d="M123.87 11.5873C119.325 11.5835 116.536 14.4889 116.544 19.2249C116.551 23.5773 119.244 26.3649 123.464 26.3915C127.904 26.4181 130.719 23.5507 130.783 18.94C130.842 14.4281 128.172 11.5873 123.87 11.5873ZM123.65 23.638C121.259 23.5849 119.894 21.7581 119.991 18.7387C120.076 15.9587 121.512 14.3218 123.803 14.3863C126.119 14.4509 127.402 16.2055 127.32 19.1907C127.242 22.1227 125.948 23.6874 123.65 23.638Z" fill="#BEBEBE"/>
<path d="M113.182 18.6359C112.308 18.0625 111.304 17.7017 110.363 17.2307C109.649 16.8737 109.084 16.38 109.277 15.4723C109.489 14.4734 110.289 14.3025 111.133 14.2759C112.196 14.2418 113.13 14.7925 114.327 15.1305C114 13.9531 115.164 12.5517 113.476 11.963C111.661 11.3326 109.816 11.4009 108.076 12.3276C106.719 13.053 105.945 14.1772 105.886 15.7951C105.826 17.4738 106.447 18.7423 107.912 19.5284C108.675 19.9386 109.47 20.2804 110.248 20.664C111.04 21.0552 111.906 21.4654 111.638 22.5858C111.345 23.8163 110.303 23.7061 109.381 23.6947C108.158 23.6758 107.113 22.9693 105.956 22.5554C105.789 25.5367 105.763 25.6279 106.603 25.8899C108.723 26.5584 110.865 26.7293 112.903 25.6051C115.666 24.0821 115.826 20.3602 113.182 18.6359Z" fill="#BEBEBE"/>
<path d="M78.7054 11.9936C76.1729 10.9416 72.4468 11.8189 70.6098 13.8318C68.6835 15.9472 68.1369 19.7831 69.364 22.5518C70.5317 25.1799 72.9637 26.5358 76.225 26.3763C79.2632 26.2282 79.7094 25.7154 79.4528 22.567C76.3329 23.9646 74.3396 23.8165 73.0455 22.1682C71.8556 20.6566 71.8147 17.7512 72.9563 16.0916C74.2169 14.2572 75.8903 14.0521 79.5904 15.3244C79.1962 14.1888 80.4011 12.7 78.7054 11.9936Z" fill="#BEBEBE"/>
<path d="M89.553 11.8759C88.8427 11.3062 87.8796 11.7201 87.0763 12.0961C86.8011 12.2253 86.5408 12.419 86.314 12.6316C85.7897 13.114 85.5888 13.1558 85.1277 12.3962C84.5365 11.4201 83.3428 11.9518 82.4428 12.0088C81.502 12.0658 81.9334 13.0076 81.9259 13.5431C81.885 17.2727 81.9929 21.0098 81.8664 24.7356C81.8107 26.3687 82.7515 26.0307 83.6254 26.0458C84.4584 26.0572 85.3471 26.3117 85.2319 24.8077C85.0868 22.924 85.1724 21.0174 85.2058 19.1185C85.269 15.5864 86.5706 14.4508 89.9732 15.0281C89.7984 13.9457 90.5793 12.6962 89.553 11.8759Z" fill="#BEBEBE"/>
<path d="M64.7941 11.9822C64.1099 11.9405 63.1691 11.5379 63.1988 13.0153C63.2806 16.9955 63.2806 20.9833 63.1988 24.9635C63.1691 26.4181 64.0727 26.0725 64.7792 26.0155C65.4821 25.9623 66.6312 26.6156 66.5679 24.9749C66.4936 23.0189 66.5493 21.0554 66.5493 19.0957C66.5531 19.0957 66.5531 19.0957 66.5568 19.0957C66.5568 17.0714 66.4936 15.0471 66.5754 13.0267C66.6423 11.3784 65.4932 12.024 64.7941 11.9822Z" fill="#BEBEBE"/>
<path d="M64.9987 5.95479C63.7864 5.92061 62.946 6.63082 62.9386 7.89932C62.9349 9.06148 63.6674 9.72611 64.9913 9.80207C66.0586 9.7451 66.9064 9.19061 66.8953 7.87653C66.8841 6.69538 66.1218 5.98518 64.9987 5.95479Z" fill="#BEBEBE"/>
</g>
<defs>
<clipPath id="clip0">
<rect width="148" height="33" fill="white"/>
</clipPath>
</defs>
</svg>
