<svg width="80" height="29" viewBox="0 0 80 29" fill="none" xmlns="http://www.w3.org/2000/svg">
<g clip-path="url(#clip0)">
<path d="M21.6366 0.703281C21.6366 0.191365 21.5008 0.00431948 21.0027 0.0220396C20.1555 0.0535421 19.3027 0.0791379 18.4593 0.0161329C17.7385 -0.0389964 17.5121 0.16577 17.5178 0.963176C17.5536 6.40523 17.531 11.8473 17.5366 17.2893C17.5366 17.9804 17.5008 18.6656 17.3649 19.3409C16.848 21.9261 15.5272 23.8674 13.0838 24.7456C10.6895 25.608 8.414 25.2476 6.46494 23.5052C4.69513 21.9222 4.12532 19.7879 4.13287 17.4232C4.14796 11.9477 4.12721 6.47414 4.15551 0.998616C4.15928 0.252402 4.01022 -0.0626233 3.22909 0.0102262C2.38758 0.0889824 1.53287 0.0614177 0.685696 0.014164C0.127205 -0.0173385 0.0121106 0.199241 0.0121106 0.742659C0.0309785 6.64347 -0.0444932 12.5462 0.0441861 18.4451C0.14796 25.413 5.99702 30.1699 12.5234 28.7484C14.4083 28.3369 16.0065 27.3938 17.5612 25.9348C17.5612 26.6613 17.5989 27.2067 17.5517 27.7442C17.497 28.3428 17.6744 28.5534 18.2725 28.518C19.18 28.4629 20.0951 28.4707 21.0046 28.5101C21.5083 28.5318 21.6385 28.3585 21.6385 27.8466C21.6234 18.7995 21.6234 9.75237 21.6366 0.703281Z" fill="#BEBEBE"/>
<path d="M33.53 7.55473C31.6904 7.98395 30.1149 8.91524 28.6338 10.2974C28.6168 9.9627 28.598 9.77959 28.598 9.59451C28.5942 6.6766 28.581 3.76065 28.6036 0.84273C28.6093 0.224493 28.4772 -0.0452467 27.8206 0.0157893C27.0716 0.084701 26.3093 0.0886388 25.5621 0.0157893C24.8036 -0.0590291 24.6357 0.222524 24.6376 0.98646C24.664 9.50985 24.6565 18.0313 24.6565 26.5547C24.6565 28.5058 24.6565 28.5078 26.481 28.5058C27.1074 28.5058 27.8848 28.7283 28.3244 28.4251C28.8621 28.053 28.4225 27.1611 28.5565 26.5113C28.5621 26.4798 28.581 26.4523 28.5942 26.4208C28.6565 26.3401 28.7187 26.2574 28.781 26.1766C31.0263 28.2696 33.6319 29.1989 36.6508 28.9351C42.5319 28.4251 46.9206 22.6661 45.9923 16.6255C45.0244 10.3171 39.3433 6.19421 33.53 7.55473ZM35.3206 25.3536C31.5357 25.3477 28.4961 22.1187 28.5055 18.114C28.5149 14.1545 31.6131 10.957 35.4206 10.9767C39.1451 10.9964 42.2432 14.2825 42.1923 18.1632C42.1395 22.1935 39.1112 25.3615 35.3206 25.3536Z" fill="#BEBEBE"/>
<path d="M52.73 8.81291C48.8753 11.2248 47.23 14.9382 47.7546 19.5553C48.247 23.875 50.5734 26.8953 54.5282 28.2736C58.6885 29.7227 62.5244 28.9725 65.7602 25.7258C66.8715 24.6114 66.847 24.5858 65.6602 23.6565C65.3093 23.3808 64.9206 23.1446 64.6112 22.8256C64.1017 22.2999 63.8149 22.4535 63.3659 22.9772C61.5206 25.1233 59.1678 25.8124 56.53 25.1253C54.0885 24.4893 52.5451 22.7803 51.7923 20.268C51.5923 19.5986 51.7131 19.4371 52.3904 19.4489C54.8093 19.4903 57.2282 19.4647 59.6489 19.4647C61.6281 19.4647 63.6074 19.4647 65.5866 19.4647C67.864 19.4647 67.9244 19.4588 67.7357 17.1079C67.0319 8.28524 58.5036 5.19997 52.73 8.81291ZM63.3583 16.2278C59.5017 16.2199 55.6451 16.2239 51.7734 16.2239C52.2866 13.2626 54.7263 11.0397 57.481 10.9531C60.4055 10.8606 63.0074 12.8511 63.6734 15.6726C63.7527 16.0073 63.8225 16.2298 63.3583 16.2278Z" fill="#BEBEBE"/>
<path d="M79.9961 8.2026C80.015 7.71825 79.8452 7.61783 79.4075 7.59618C77.2471 7.48789 75.3754 8.04902 73.8622 9.95099C73.8622 9.43513 73.8263 8.91731 73.8716 8.40737C73.9188 7.86592 73.7093 7.74384 73.232 7.76353C72.3546 7.79897 71.4735 7.80094 70.5943 7.7655C70.1056 7.74581 69.9603 7.88561 69.9622 8.41918C69.981 14.9067 69.9829 21.3943 69.9622 27.8798C69.9603 28.441 70.1622 28.5237 70.6188 28.5059C71.4339 28.4744 72.2565 28.4429 73.066 28.5138C73.7792 28.5749 73.9509 28.3366 73.9433 27.6002C73.9056 23.8337 73.8792 20.0633 73.9471 16.2968C74.0018 13.2548 75.8471 11.4316 78.7112 11.4099C78.9622 11.408 79.215 11.3863 79.4641 11.4119C79.8735 11.4533 80.0112 11.2879 79.998 10.8567C79.9697 9.97264 79.9622 9.08664 79.9961 8.2026Z" fill="#BEBEBE"/>
</g>
<defs>
<clipPath id="clip0">
<rect width="80" height="29" fill="white"/>
</clipPath>
</defs>
</svg>
